# xmcd
#
# Track frame offsets:
# 150
# 20628
# 46193
# 73975
# 98865
# 130690
# 152318
# 177720
# 207338
# 235595
# 255473
# 275618
# 302610
#
# Disc length: 4373 seconds
#
#
# Revision: 2
# Processed by: cddbd v1.5.1PL0 Copyright (c) Steve Scherf et al.
# Submitted via: FreeRIP 2.941 
#
DISCID=af11130d
DTITLE=Boubacar Traoré - The Best Of Boubacar Traoré
DYEAR=2003
DGENRE=
TTITLE0=Bebe Bo Nadero
TTITLE1=Kar Kar Madison
TTITLE2=Soundiata
TTITLE3=Mancipera
TTITLE4=Mali Twist
TTITLE5=Macire
TTITLE6=Les Enfants de Pierrette
TTITLE7=Dounia
TTITLE8=Mouso Teke Soma Ye
TTITLE9=Tounga Mogni
TTITLE10=Maou Leye Mara
TTITLE11=Je Chanterai Pour Toi
TTITLE12=Santa Mariya
EXTD=
EXTT0=
EXTT1=
EXTT2=
EXTT3=
EXTT4=
EXTT5=
EXTT6=
EXTT7=
EXTT8=
EXTT9=
EXTT10=
EXTT11=
EXTT12=
PLAYORDER=
